<svg width="10" height="8" viewBox="0 0 10 8" fill="none" xmlns="http://www.w3.org/2000/svg">
<path d="M1 8C0.725 8 0.489583 7.90208 0.29375 7.70625C0.0979166 7.51042 0 7.275 0 7V1C0 0.725 0.0979166 0.489583 0.29375 0.29375C0.489583 0.0979166 0.725 0 1 0H9C9.275 0 9.51042 0.0979166 9.70625 0.29375C9.90208 0.489583 10 0.725 10 1V7C10 7.275 9.90208 7.51042 9.70625 7.70625C9.51042 7.90208 9.275 8 9 8H1ZM5.5 7H6.75V1H5.5V7ZM3.25 7H4.5V1H3.25V7ZM1 7H2.25V1H1V7ZM7.75 7H9V1H7.75V7Z" fill="#DBFCFF"/>
</svg>
