<svg width="12" height="12" viewBox="0 0 12 12" fill="none" xmlns="http://www.w3.org/2000/svg">
<path d="M0 11.6667V9.91667C0 9.59583 0.114236 9.32118 0.342708 9.09271C0.571181 8.86424 0.845833 8.75 1.16667 8.75H10.5C10.8208 8.75 11.0955 8.86424 11.324 9.09271C11.5524 9.32118 11.6667 9.59583 11.6667 9.91667V11.6667H0ZM1.16667 10.5H10.5V9.91667H1.16667V10.5ZM1.75 7.875V1.16667C1.75 0.845833 1.86424 0.571181 2.09271 0.342708C2.32118 0.114236 2.59583 0 2.91667 0H8.75C9.07083 0 9.34549 0.114236 9.57396 0.342708C9.80243 0.571181 9.91667 0.845833 9.91667 1.16667V7.875H8.75V1.16667H2.91667V7.875H1.75ZM3.5 7H3.83542C4.26319 7 4.6059 6.78611 4.86354 6.35833C5.12118 5.93056 5.25 5.36667 5.25 4.66667C5.25 3.96667 5.12118 3.40278 4.86354 2.975C4.6059 2.54722 4.26319 2.33333 3.83542 2.33333H3.5V7ZM7 5.83333C7.32083 5.83333 7.59549 5.7191 7.82396 5.49062C8.05243 5.26215 8.16667 4.9875 8.16667 4.66667C8.16667 4.34583 8.05243 4.07118 7.82396 3.84271C7.59549 3.61424 7.32083 3.5 7 3.5C6.67917 3.5 6.40451 3.61424 6.17604 3.84271C5.94757 4.07118 5.83333 4.34583 5.83333 4.66667C5.83333 4.9875 5.94757 5.26215 6.17604 5.49062C6.40451 5.7191 6.67917 5.83333 7 5.83333Z" fill="#00F0FF"/>
</svg>
