<svg width="10" height="10" viewBox="0 0 10 10" fill="none" xmlns="http://www.w3.org/2000/svg">
<path d="M4.09534 9.33333C3.93007 9.33333 3.79152 9.27743 3.67972 9.16562C3.56791 9.05382 3.51201 8.91528 3.51201 8.75V5.25L0.128676 0.933333C-0.0171569 0.738889 -0.0390319 0.534722 0.0630515 0.320833C0.165135 0.106944 0.342565 0 0.595343 0H8.76201C9.01479 0 9.19222 0.106944 9.2943 0.320833C9.39638 0.534722 9.37451 0.738889 9.22868 0.933333L5.84534 5.25V8.75C5.84534 8.91528 5.78944 9.05382 5.67763 9.16562C5.56583 9.27743 5.42729 9.33333 5.26201 9.33333H4.09534ZM4.67868 4.84167L7.56618 1.16667H1.79118L4.67868 4.84167Z" fill="#006970"/>
</svg>
