<svg width="12" height="13" viewBox="0 0 12 13" fill="none" xmlns="http://www.w3.org/2000/svg">
<path d="M0.947917 7.59792L0 6.9125L2.91667 2.24583L4.66667 4.2875L7 0.495833L8.75 3.12083L10.7188 0L11.6667 0.685417L8.77917 5.26458L7.04375 2.65417L4.82708 6.25625L3.0625 4.2L0.947917 7.59792ZM7.875 9.91667C8.28333 9.91667 8.62847 9.77569 8.91042 9.49375C9.19236 9.21181 9.33333 8.86667 9.33333 8.45833C9.33333 8.05 9.19236 7.70486 8.91042 7.42292C8.62847 7.14097 8.28333 7 7.875 7C7.46667 7 7.12153 7.14097 6.83958 7.42292C6.55764 7.70486 6.41667 8.05 6.41667 8.45833C6.41667 8.86667 6.55764 9.21181 6.83958 9.49375C7.12153 9.77569 7.46667 9.91667 7.875 9.91667ZM10.85 12.25L9.275 10.675C9.07083 10.8111 8.84965 10.9132 8.61146 10.9812C8.37326 11.0493 8.12778 11.0833 7.875 11.0833C7.14583 11.0833 6.52604 10.8281 6.01562 10.3177C5.50521 9.80729 5.25 9.1875 5.25 8.45833C5.25 7.72917 5.50521 7.10938 6.01562 6.59896C6.52604 6.08854 7.14583 5.83333 7.875 5.83333C8.60417 5.83333 9.22396 6.08854 9.73438 6.59896C10.2448 7.10938 10.5 7.72917 10.5 8.45833C10.5 8.71111 10.466 8.9566 10.3979 9.19479C10.3299 9.43299 10.2278 9.65417 10.0917 9.85833L11.6667 11.4333L10.85 12.25Z" fill="#B9CACB"/>
</svg>
