<svg width="43" height="43" viewBox="0 0 43 43" fill="none" xmlns="http://www.w3.org/2000/svg">
<g opacity="0.2">
<path d="M14 29H17V21.5H14V29ZM26 29H29V14H26V29ZM20 29H23V24.5H20V29ZM20 21.5H23V18.5H20V21.5ZM11 35C10.175 35 9.46875 34.7062 8.88125 34.1187C8.29375 33.5312 8 32.825 8 32V11C8 10.175 8.29375 9.46875 8.88125 8.88125C9.46875 8.29375 10.175 8 11 8H32C32.825 8 33.5312 8.29375 34.1187 8.88125C34.7062 9.46875 35 10.175 35 11V32C35 32.825 34.7062 33.5312 34.1187 34.1187C33.5312 34.7062 32.825 35 32 35H11ZM11 32H32V11H11V32ZM11 11V32V11Z" fill="#DEE2F5"/>
</g>
</svg>
