<svg width="20" height="20" viewBox="0 0 20 20" fill="none" xmlns="http://www.w3.org/2000/svg">
<path d="M0 20V17C0 16.45 0.195833 15.9792 0.5875 15.5875C0.979167 15.1958 1.45 15 2 15H18C18.55 15 19.0208 15.1958 19.4125 15.5875C19.8042 15.9792 20 16.45 20 17V20H0ZM3 13.5V2C3 1.45 3.19583 0.979167 3.5875 0.5875C3.97917 0.195833 4.45 0 5 0H15C15.55 0 16.0208 0.195833 16.4125 0.5875C16.8042 0.979167 17 1.45 17 2V13.5H3ZM6 12H6.575C7.30833 12 7.89583 11.6333 8.3375 10.9C8.77917 10.1667 9 9.2 9 8C9 6.8 8.77917 5.83333 8.3375 5.1C7.89583 4.36667 7.30833 4 6.575 4H6V12ZM12 10C12.55 10 13.0208 9.80417 13.4125 9.4125C13.8042 9.02083 14 8.55 14 8C14 7.45 13.8042 6.97917 13.4125 6.5875C13.0208 6.19583 12.55 6 12 6C11.45 6 10.9792 6.19583 10.5875 6.5875C10.1958 6.97917 10 7.45 10 8C10 8.55 10.1958 9.02083 10.5875 9.4125C10.9792 9.80417 11.45 10 12 10Z" fill="#DBFCFF"/>
</svg>
